<?xml version="1.0" encoding="UTF-8"?>
<svg width="229px" height="79px" viewBox="0 0 229 79" version="1.1" xmlns="http://www.w3.org/2000/svg" xmlns:xlink="http://www.w3.org/1999/xlink">
	<g id="Logo-/-Fonts-/-Farben" stroke="none" stroke-width="1" fill="none" fill-rule="evenodd">
		<g id="Logo" transform="translate(-365.000000, -405.000000)" fill="#1E1E1E" fill-rule="nonzero">
			<path d="M426.457,483.853 C431.761667,483.853 434.414,481.818333 434.414,477.749 C434.414,475.278333 433.324,474.043 431.144,474.043 C428.964,474.043 427.874,475.024 427.874,476.986 C427.874,477.930667 428.291833,478.657333 429.1275,479.166 C429.963167,479.674667 430.381,480.074333 430.381,480.365 C430.381,480.946333 429.836,481.237 428.746,481.237 C427.438,481.237 426.166333,480.4195 424.931,478.7845 C423.695667,477.1495 422.787333,473.062 422.206,466.522 C421.479333,458.310667 419.335667,452.370167 415.775,448.7005 C412.214333,445.030833 406.473667,442.941667 398.553,442.433 L398.553,442.433 L398.662,441.779 C404.911333,441.052333 409.634667,439.962333 412.832,438.509 C420.098667,435.166333 423.732,430.007 423.732,423.031 C423.732,419.979 422.86,417.181333 421.116,414.638 C419.372,412.094667 417.046667,410.205333 414.14,408.97 C410.434,407.371333 403.494333,406.572 393.321,406.572 L393.321,406.572 L383.075,406.572 C381.621667,406.644667 380.858667,406.681 380.786,406.681 L377.189,406.681 C375.953667,406.681 374.682,406.644667 373.374,406.572 L373.374,406.572 L371.412,406.572 C368.578,406.572 366.834,406.6265 366.18,406.7355 C365.526,406.8445 365.199,407.153333 365.199,407.662 C365.199,408.316 365.998333,408.643 367.597,408.643 C369.849667,408.643 371.484667,408.861 372.502,409.297 C373.301333,409.660333 373.773667,410.187167 373.919,410.8775 C374.064333,411.567833 374.137,413.802333 374.137,417.581 L374.137,417.581 L374.137,473.716 C374.137,476.259333 374.028,477.785333 373.81,478.294 C373.374,479.311333 371.920667,479.892667 369.45,480.038 C366.470667,480.183333 364.981,480.583 364.981,481.237 C364.981,481.818333 365.489667,482.109 366.507,482.109 L366.507,482.109 L371.521,482 L371.521,482 L373.047,482 C373.991667,482.072667 374.827333,482.109 375.554,482.109 L375.554,482.109 L383.402,482.109 C384.564667,482.109 385.8,482.072667 387.108,482 L387.108,482 L388.852,482 L399.425,482.109 C400.297,482.109 400.733,481.818333 400.733,481.237 C400.733,480.583 399.861,480.256 398.117,480.256 C395.283,480.256 393.357333,480.019833 392.34,479.5475 C391.322667,479.075167 390.814,478.221333 390.814,476.986 C390.748254,476.591524 390.71225,474.025863 390.705989,469.289018 L390.705,442.978 C394.992333,442.905333 398.098833,443.995333 400.0245,446.248 C401.950167,448.500667 403.276333,452.461 404.003,458.129 L404.003,458.129 L405.093,467.067 C405.529,470.773 407.309333,474.261 410.434,477.531 C414.430667,481.745667 419.771667,483.853 426.457,483.853 Z M391.187002,441.018659 L390.705,441.016 L390.705269,422.466138 C390.713164,415.844105 390.894741,412.035726 391.25,411.041 C391.831333,409.442333 393.321,408.643 395.719,408.643 C403.131,408.643 406.837,413.33 406.837,422.704 C406.837,429.171333 405.565333,433.858333 403.022,436.765 C400.478667,439.671667 396.373,441.088667 390.705,441.016 L391.187002,441.018659 Z M461.228,483.417 C466.968667,483.417 472.237,481.527667 477.033,477.749 C483.137,472.953 486.189,466.667333 486.189,458.892 C486.189,451.916 483.772833,445.939167 478.9405,440.9615 C474.108167,435.983833 468.313,433.495 461.555,433.495 C454.506333,433.495 448.493167,435.9475 443.5155,440.8525 C438.537833,445.7575 436.049,451.698 436.049,458.674 C436.049,465.359333 438.537833,471.1545 443.5155,476.0595 C448.493167,480.9645 454.397333,483.417 461.228,483.417 Z M461.446,481.891 C458.684667,481.891 456.541,480.292333 455.015,477.095 C453.125667,473.098333 452.181,466.340333 452.181,456.821 C452.181,449.990333 452.980333,444.631167 454.579,440.7435 C456.177667,436.855833 458.394,434.912 461.228,434.912 C464.28,434.912 466.496333,436.765 467.877,440.471 C469.112333,443.813667 469.73,449.990333 469.73,459.001 C469.73,466.340333 469.221333,471.935667 468.204,475.787 C467.114,479.856333 464.861333,481.891 461.446,481.891 Z M515.074,483.417 C520.378667,483.417 524.920333,481.636667 528.699,478.076 C531.315,475.605333 532.623,473.679667 532.623,472.299 C532.623,471.863 532.477667,471.645 532.187,471.645 C531.823667,471.645 531.424,471.935667 530.988,472.517 C527.427333,476.949667 523.939333,479.166 520.524,479.166 C517.254,479.166 514.492667,477.785333 512.24,475.024 C509.333333,471.390667 507.88,465.359333 507.88,456.93 C507.88,442.178667 511.186333,434.803 517.799,434.803 C519.325,434.803 520.614833,435.2935 521.6685,436.2745 C522.722167,437.2555 523.249,438.436333 523.249,439.817 C523.249,440.325667 523.012833,441.1795 522.5405,442.3785 C522.068167,443.5775 521.832,444.613 521.832,445.485 C521.832,448.900333 523.757667,450.608 527.609,450.608 C529.207667,450.608 530.515667,450.063 531.533,448.973 C532.550333,447.883 533.059,446.466 533.059,444.722 C533.059,441.597333 531.4785,438.945 528.3175,436.765 C525.1565,434.585 521.287,433.495 516.709,433.495 C509.587667,433.495 503.592667,435.983833 498.724,440.9615 C493.855333,445.939167 491.421,452.061333 491.421,459.328 C491.421,466.013333 493.728167,471.6995 498.3425,476.3865 C502.956833,481.0735 508.534,483.417 515.074,483.417 Z M560.854,482.218 C561.653333,482.218 562.053,481.927333 562.053,481.346 C562.053,480.764667 561.689667,480.474 560.963,480.474 L560.963,480.474 L560.091,480.474 C559.800333,480.546667 559.437,480.583 559.001,480.583 C557.620333,480.583 556.802833,480.256 556.5485,479.602 C556.294167,478.948 556.167,476.695333 556.167,472.844 L556.167,456.712 C558.347,459.982 560.018333,462.634333 561.181,464.669 C562.852333,467.430333 564.124,469.465 564.996,470.773 C568.048,475.714333 569.574,478.548333 569.574,479.275 C569.574,480.001667 568.956333,480.401333 567.721,480.474 C565.759,480.546667 564.778,480.837333 564.778,481.346 C564.778,481.854667 565.286667,482.109 566.304,482.109 C566.885333,482.109 567.866333,482.072667 569.247,482 C570.627667,481.927333 572.662333,481.891 575.351,481.891 C577.531,481.891 579.801833,481.927333 582.1635,482 C584.525167,482.072667 586.396333,482.109 587.777,482.109 L589.912927,482.108027 C592.412976,482.090509 593.663,481.8365 593.663,481.346 C593.663,480.764667 592.9545,480.474 591.5375,480.474 C590.1205,480.474 589.157667,480.3105 588.649,479.9835 C588.140333,479.6565 587.486333,478.875333 586.687,477.64 L586.687,477.64 L585.815,476.332 L583.962,473.716 C583.09,472.408 582.545,471.608667 582.327,471.318 C580.873667,469.138 579.82,467.503 579.166,466.413 L579.166,466.413 L566.631,447.447 C570.119,443.523 572.989333,440.471 575.242,438.291 C576.477333,437.055667 578.076,436.401667 580.038,436.329 C583.017333,436.183667 584.507,435.893 584.507,435.457 C584.507,435.021 583.853,434.803 582.545,434.803 L582.545,434.803 L574.043,435.021 L565.759,434.803 C564.887,434.803 564.451,435.093667 564.451,435.675 C564.451,436.329 565.286667,436.656 566.958,436.656 C569.428667,436.728667 570.882,436.801333 571.318,436.874 C571.754,436.946667 571.972,437.164667 571.972,437.528 C571.972,437.818667 570.228,439.926 566.74,443.85 C564.56,446.320667 562.925,448.173667 561.835,449.409 C559.219,452.315667 557.329667,454.241333 556.167,455.186 L556.167,455.186 L556.167,439.272 C556.167,432.223333 556.130667,426.737 556.058,422.813 L556.058,422.813 L555.84,411.15 C555.767333,408.243333 555.585667,406.281333 555.295,405.264 C554.568333,405.336667 553.696333,405.663667 552.679,406.245 C549.699667,407.843667 544.540333,408.788333 537.201,409.079 C535.384333,409.151667 534.330667,409.224333 534.04,409.297 C533.749333,409.369667 533.604,409.624 533.604,410.06 C533.604,410.568667 534.294333,410.823 535.675,410.823 C538.363667,410.750333 540.016833,411.041 540.6345,411.695 C541.252167,412.349 541.561,414.093 541.561,416.927 L541.561,416.927 L541.67,474.37 C541.67,477.64 541.5065,479.456667 541.1795,479.82 C540.8525,480.183333 539.49,480.401333 537.092,480.474 C535.202667,480.546667 534.258,480.837333 534.258,481.346 C534.258,481.854667 534.657667,482.109 535.457,482.109 C535.893,482.109 536.292667,482.072667 536.656,482 L536.656,482 L547.229,482 L553.987,482.109 L557.584,482.109 L560.418,482.218 L560.854,482.218 Z" id="Rock">
			</path>
		</g>
	</g>
</svg>
